<svg viewBox="0 0 24 24">
    <g id="phone">
        <path id="phonesvg" d="M19.95 21C20.25 21 20.5 20.9 20.7 20.7C20.9 20.5 21 20.25 21 19.95V15.9C21 15.6667 20.925 15.4623 20.775 15.287C20.625 15.1117 20.4333 14.9993 20.2 14.95L16.75 14.25C16.5167 14.2167 16.279 14.2377 16.037 14.313C15.795 14.3883 15.5993 14.5007 15.45 14.65L13.1 17C11.8333 16.2333 10.675 15.325 9.625 14.275C8.575 13.225 7.7 12.1 7 10.9L9.4 8.45C9.55 8.3 9.646 8.129 9.688 7.937C9.73 7.745 9.734 7.53267 9.7 7.3L9.05 3.8C9.01667 3.56667 8.90833 3.375 8.725 3.225C8.54167 3.075 8.33333 3 8.1 3H4.05C3.75 3 3.5 3.1 3.3 3.3C3.1 3.5 3 3.75 3 4.05C3 6.2 3.47933 8.296 4.438 10.338C5.39667 12.38 6.66333 14.1883 8.238 15.763C9.81267 17.3377 11.621 18.6043 13.663 19.563C15.705 20.5217 17.8007 21.0007 19.95 21Z"/>
    </g>
</svg>
